<?xml version="1.0" encoding="utf-8"?>
<!-- Generator: Adobe Illustrator 19.0.0, SVG Export Plug-In . SVG Version: 6.00 Build 0)  -->
<svg version="1.1" id="Logo" xmlns="http://www.w3.org/2000/svg" xmlns:xlink="http://www.w3.org/1999/xlink" x="0px" y="0px"
	 viewBox="0 0 573.6 85.5" style="enable-background:new 0 0 573.6 85.5;" xml:space="preserve">
<style type="text/css">
	.st0{fill:#0F3145;}
	.st1{fill:#1C9EC6;}
</style>
<path class="st0" d="M38.5,14.2H63V1.6H0v12.6h24.6v69.6h13.9V14.2z"/>
<path class="st0" d="M125.7,55.9c-1.1,3.7-2.7,6.9-4.7,9.3c-2,2.5-4.4,4.3-7.2,5.6c-2.8,1.3-5.8,1.9-9.1,1.9c-3.3,0-6.3-0.6-9.1-1.9
	c-2.8-1.2-5.2-3.1-7.2-5.6c-2-2.5-3.6-5.6-4.7-9.3c-1.1-3.7-1.7-8.1-1.7-13.1c0-5,0.6-9.4,1.7-13.1c1.1-3.7,2.7-6.9,4.7-9.4
	c2-2.5,4.4-4.4,7.2-5.6c2.8-1.2,5.8-1.8,9.1-1.8c3.3,0,6.3,0.6,9.1,1.8c2.8,1.2,5.2,3.1,7.2,5.6c2,2.5,3.6,5.6,4.7,9.4
	c1.1,3.7,1.7,8.1,1.7,13.1C127.4,47.8,126.8,52.1,125.7,55.9z M139.3,25.5c-1.6-5.2-4.1-9.7-7.2-13.5c-3.2-3.8-7.1-6.7-11.7-8.8
	c-4.6-2.1-9.9-3.1-15.7-3.1c-5.9,0-11.1,1-15.7,3.1c-4.6,2.1-8.5,5-11.7,8.8c-3.2,3.8-5.6,8.3-7.2,13.5c-1.6,5.2-2.5,11-2.5,17.2
	c0,6.3,0.8,12,2.5,17.2c1.6,5.2,4.1,9.7,7.2,13.5c3.2,3.8,7.1,6.7,11.7,8.8c4.6,2.1,9.9,3.1,15.7,3.1c5.9,0,11.1-1,15.7-3.1
	c4.6-2.1,8.5-5,11.7-8.8c3.2-3.8,5.6-8.3,7.2-13.5c1.6-5.2,2.5-11,2.5-17.2C141.8,36.5,140.9,30.7,139.3,25.5z"/>
<path class="st0" d="M170.5,1.6h-13.9v82.2h13.9V48.1h35.3v35.8h13.9V1.6h-13.9v33.9h-35.3V1.6z"/>
<path class="st0" d="M288.9,83.9h14.7L273.5,1.6h-12.7l-30.2,82.2h14.8l7.5-21h28.7L288.9,83.9z M267.3,21.4
	c2.7,8.6,5.1,15.7,7.1,21.6l2.6,7.3h-19.7l2.6-7.3c2.1-5.8,4.5-13,7.1-21.6H267.3z"/>
<path class="st1" d="M339.3,14.2h24.5V1.6h-63v12.6h24.6v69.6h13.9V14.2z"/>
<path class="st1" d="M388.6,48.1H419V35.5h-30.4V14.2H424V1.6h-49.3v82.2H426V71.3h-37.4V48.1z"/>
<path class="st1" d="M454.8,48.1h30.4V35.5h-30.4V14.2h35.4V1.6h-49.3v82.2h51.4V71.3h-37.4V48.1z"/>
<path class="st1" d="M521.6,1.6H507v82.2h13.9V46.6c0-5.5-0.2-13.3-0.7-23.4h0.3c4.7,8.6,9.2,16.2,13.5,22.8l24.8,37.9h14.6V1.6
	h-13.9v37.2c0,4.9,0.2,12.7,0.7,23.4h-0.3c-3.4-6.5-7.9-14-13.3-22.4L521.6,1.6z"/>
</svg>
